<svg width="520" height="100" viewBox="0 0 520 100" fill="none" xmlns="http://www.w3.org/2000/svg">
<path d="M45.75 74.2303L66.4112 100H44.757L5.1471 49.9909L18.4749 39.5427C22.4104 44.5436 25.444 47.4221 30.7459 47.4221C35.4466 47.4221 38.4711 44.9991 38.4711 38.9415V13.937H0V0H366.983L367 13.9987H97.9088L97.8923 99.9818H80.2856V60.4482C76.8056 61.2042 73.1617 61.6597 68.9256 61.6597C60.59 61.6597 53.3203 59.6921 48.1732 56.6588C44.9938 58.9269 41.2041 60.2933 36.9589 60.5939C36.2028 60.5939 34.9912 60.5939 34.235 60.4391L34.0802 61.0494C37.4144 64.3833 40.4389 67.7172 45.7408 74.2303H45.75ZM80.2947 43.9333V13.937H55.9075V39.3879C55.9075 41.3554 55.7526 43.1773 55.452 44.8442C58.6314 45.7551 62.5759 46.2106 66.9669 46.2106C71.6585 46.2106 76.3592 45.4545 80.2947 43.9424V43.9333Z" fill="white"/>
<path d="M154.045 23.2577L177.939 100H163.584L157.775 80.5138H130.151L124.341 100H110.534L134.318 23.2577H154.045ZM133.552 69.017H154.373L149.549 52.5918C147.469 45.1489 145.162 37.4875 144.286 32.6683H143.849C142.864 37.2688 140.556 45.4769 138.586 52.2638L133.543 69.017H133.552Z" fill="white"/>
<path d="M207.907 23.2577C224.569 23.2577 234.209 29.6074 234.209 45.486C234.209 58.5133 226.648 65.1909 217.547 66.612V67.0493C221.277 68.7984 223.794 71.5405 227.415 77.7808L240.018 100.009H223.684L210.534 75.1571C208.564 71.6498 205.928 70.2287 201.66 70.2287H198.696V100.009H185.107V23.2577H207.907ZM198.696 59.0599H206.366C215.905 59.0599 220.283 55.1152 220.283 46.6885C220.283 38.2618 215.239 34.7545 206.256 34.7545H198.696V59.0599Z" fill="white"/>
<path d="M290.497 23.2577L314.391 100H300.037L294.227 80.5138H266.603L260.794 100H246.986L270.771 23.2577H290.497ZM270.005 69.017H290.825L286.001 52.5918C283.922 45.1489 281.614 37.4875 280.739 32.6683H280.301C279.316 37.2688 277.009 45.4769 275.039 52.2638L269.996 69.017H270.005Z" fill="white"/>
<path d="M337.246 23.2577V88.5124H367V100.009H323.548V23.2577H337.246Z" fill="white"/>
<path d="M441.067 22.2373C441.906 26.856 444.113 34.1987 446.11 41.3408L450.734 57.083H430.771L435.604 41.0225C437.492 34.518 439.699 26.6465 440.647 22.2373H441.067Z" fill="url(#paint0_linear_1_3702)"/>
<path fill-rule="evenodd" clip-rule="evenodd" d="M520 0V100H389V0H520ZM431.491 13.209L408.691 86.791H421.934L427.506 68.1064H453.99L459.562 86.791H473.315L450.406 13.209H431.491ZM484.578 13.209V86.791H497.711V13.209H484.578Z" fill="url(#paint1_linear_1_3702)"/>
<defs>
<linearGradient id="paint0_linear_1_3702" x1="529.492" y1="2.91174e-06" x2="389.358" y2="99.9937" gradientUnits="userSpaceOnUse">
<stop stop-color="#775D6E"/>
<stop offset="1" stop-color="#CC9F48"/>
</linearGradient>
<linearGradient id="paint1_linear_1_3702" x1="529.492" y1="2.91174e-06" x2="389.358" y2="99.9937" gradientUnits="userSpaceOnUse">
<stop stop-color="#775D6E"/>
<stop offset="1" stop-color="#CC9F48"/>
</linearGradient>
</defs>
</svg>
