<svg width="207" height="100" viewBox="0 0 207 100" fill="none" xmlns="http://www.w3.org/2000/svg">
<path d="M45.8003 74.237L66.4843 100.009H44.8062L5.15276 49.9954L18.4952 39.5463C22.435 44.5477 25.472 47.4264 30.7798 47.4264C35.4856 47.4264 38.5135 45.0032 38.5135 38.9451V13.9382H0V0H207V14H98V99.9909H80.3739V60.4537C76.8901 61.2098 73.2421 61.6653 69.0014 61.6653C60.6566 61.6653 53.3789 59.6975 48.2262 56.6639C45.0433 58.9323 41.2494 60.2988 36.9995 60.5994C36.2426 60.5994 35.0296 60.5994 34.2727 60.4446L34.1176 61.0549C37.4555 64.3892 40.4834 67.7234 45.7912 74.237H45.8003ZM80.383 43.9373V13.9382H55.969V39.3915C55.969 41.3592 55.814 43.1812 55.513 44.8483C58.6959 45.7593 62.6448 46.2148 67.0406 46.2148C71.7374 46.2148 76.4432 45.4587 80.383 43.9464V43.9373Z" fill="#42524B"/>
<path d="M148.004 41.6207C148.631 45.0728 150.28 50.5609 151.773 55.8991L155.229 67.6652H140.308L143.921 55.6611C145.332 50.7995 146.981 44.9162 147.69 41.6207H148.004Z" fill="url(#paint0_linear_1_687)"/>
<path fill-rule="evenodd" clip-rule="evenodd" d="M207 25V100H109V25H207ZM140.846 34.8727L123.805 89.8696H133.703L137.868 75.9043H157.663L161.828 89.8696H172.107L154.984 34.8727H140.846ZM180.525 34.8727V89.8696H190.341V34.8727H180.525Z" fill="url(#paint1_linear_1_687)"/>
<defs>
<linearGradient id="paint0_linear_1_687" x1="214.101" y1="25" x2="109.088" y2="99.7423" gradientUnits="userSpaceOnUse">
<stop stop-color="#775D6E"/>
<stop offset="1" stop-color="#CC9F48"/>
</linearGradient>
<linearGradient id="paint1_linear_1_687" x1="214.101" y1="25" x2="109.088" y2="99.7423" gradientUnits="userSpaceOnUse">
<stop stop-color="#775D6E"/>
<stop offset="1" stop-color="#CC9F48"/>
</linearGradient>
</defs>
</svg>
